0
SECTION
2
HEADER
9
$INSUNITS
70
1
9
$ACADVER
1
AC1014
9
$HANDSEED
5
FFFF
0
ENDSEC
0
SECTION
2
TABLES
0
TABLE
2
VPORT
5
8
100
AcDbSymbolTable
0
ENDTAB
0
TABLE
2
LTYPE
5
5
100
AcDbSymbolTable
0
LTYPE
5
14
100
AcDbSymbolTableRecord
100
AcDbLinetypeTableRecord
2
BYBLOCK
70
0
0
LTYPE
5
15
100
AcDbSymbolTableRecord
100
AcDbLinetypeTableRecord
2
BYLAYER
70
0
0
ENDTAB
0
TABLE
2
LAYER
5
2
100
AcDbSymbolTable
70
2
0
LAYER
5
50
100
AcDbSymbolTableRecord
100
AcDbLayerTableRecord
2
0
70
0
6
CONTINUOUS
0
ENDTAB
0
TABLE
2
STYLE
5
3
100
AcDbSymbolTable
70
1
0
STYLE
5
11
100
AcDbSymbolTableRecord
100
AcDbTextStyleTableRecord
2
STANDARD
70
0
0
ENDTAB
0
TABLE
2
VIEW
5
6
100
AcDbSymbolTable
70
0
0
ENDTAB
0
TABLE
2
UCS
5
7
100
AcDbSymbolTable
70
0
0
ENDTAB
0
TABLE
2
APPID
5
9
100
AcDbSymbolTable
70
2
0
APPID
5
12
100
AcDbSymbolTableRecord
100
AcDbRegAppTableRecord
2
ACAD
70
0
0
ENDTAB
0
TABLE
2
DIMSTYLE
5
A
100
AcDbSymbolTable
70
1
0
ENDTAB
0
TABLE
2
BLOCK_RECORD
5
1
100
AcDbSymbolTable
70
1
0
BLOCK_RECORD
5
1F
100
AcDbSymbolTableRecord
100
AcDbBlockTableRecord
2
*MODEL_SPACE
0
BLOCK_RECORD
5
1B
100
AcDbSymbolTableRecord
100
AcDbBlockTableRecord
2
*PAPER_SPACE
0
ENDTAB
0
ENDSEC
0
SECTION
2
BLOCKS
0
BLOCK
5
20
100
AcDbEntity
100
AcDbBlockBegin
2
*MODEL_SPACE
0
ENDBLK
5
21
100
AcDbEntity
100
AcDbBlockEnd
0
BLOCK
5
1C
100
AcDbEntity
100
AcDbBlockBegin
2
*PAPER_SPACE
0
ENDBLK
5
1D
100
AcDbEntity
100
AcDbBlockEnd
0
ENDSEC
0
SECTION
2
ENTITIES
0
LINE
5
100
100
AcDbEntity
8
0
100
AcDbLine
10
5.0990875271589857
20
-3.5917427418201862
30
0
11
5.2330920990748755
21
-3.5917427418201862
31
0
0
LWPOLYLINE
5
101
100
AcDbEntity
8
0
100
AcDbPolyline
90
4
70
1
43
0.0
10
1.0164835139043367
20
-2.8007842918763362
10
1.0164835139043382
20
-11.800784291876337
10
13.016483513904337
20
-11.800784291876335
10
13.016483513904332
20
-2.8007842918763335
0
LINE
5
102
100
AcDbEntity
8
0
100
AcDbLine
10
8.8668772146917441
20
-3.5247404558622399
30
0
11
8.8668772146917441
21
-3.6587450277781297
31
0
0
SPLINE
5
103
100
AcDbEntity
8
0
100
AcDbSpline
70
0
71
3
72
17
73
13
74
0
42
0.000000001
43
0.0000000001
44
0.0000000001
40
0
40
0
40
0
40
0
40
1
40
1
40
1
40
2
40
2
40
2
40
3
40
3
40
3
40
4
40
4
40
4
40
4
10
8.8668772146917441
20
-3.7167427418201844
30
0
10
8.7978416209667447
20
-3.7167427418201844
30
0
10
8.7418772146917423
20
-3.6607783355451948
30
0
10
8.7418772146917423
20
-3.5917427418201848
30
0
10
8.7418772146917423
20
-3.5227071480951859
30
0
10
8.7978416209667447
20
-3.4667427418201853
30
0
10
8.8668772146917441
20
-3.4667427418201853
30
0
10
8.9359128084167416
20
-3.4667427418201853
30
0
10
8.9918772146917441
20
-3.5227071480951859
30
0
10
8.9918772146917441
20
-3.5917427418201848
30
0
10
8.9918772146917441
20
-3.6607783355451948
30
0
10
8.9359128084167416
20
-3.7167427418201844
30
0
10
8.8668772146917441
20
-3.7167427418201844
30
0
0
SPLINE
5
104
100
AcDbEntity
8
0
100
AcDbSpline
70
0
71
3
72
17
73
13
74
0
42
0.000000001
43
0.0000000001
44
0.0000000001
40
0
40
0
40
0
40
0
40
1
40
1
40
1
40
2
40
2
40
2
40
3
40
3
40
3
40
4
40
4
40
4
40
4
10
2.0164835139043356
20
-3.7167427418201857
30
0
10
1.9474479201793367
20
-3.7167427418201857
30
0
10
1.8914835139043347
20
-3.6607783355451962
30
0
10
1.8914835139043347
20
-3.5917427418201862
30
0
10
1.8914835139043347
20
-3.5227071480951873
30
0
10
1.9474479201793367
20
-3.4667427418201866
30
0
10
2.0164835139043356
20
-3.4667427418201866
30
0
10
2.0855191076293345
20
-3.4667427418201866
30
0
10
2.1414835139043338
20
-3.5227071480951873
30
0
10
2.1414835139043338
20
-3.5917427418201862
30
0
10
2.1414835139043338
20
-3.6607783355451962
30
0
10
2.0855191076293345
20
-3.7167427418201857
30
0
10
2.0164835139043356
20
-3.7167427418201857
30
0
0
LINE
5
105
100
AcDbEntity
8
0
100
AcDbLine
10
5.1660898131169235
20
-3.5247404558622399
30
0
11
5.1660898131169235
21
-3.658745027778131
31
0
0
SPLINE
5
106
100
AcDbEntity
8
0
100
AcDbSpline
70
0
71
3
72
17
73
13
74
0
42
0.000000001
43
0.0000000001
44
0.0000000001
40
0
40
0
40
0
40
0
40
1
40
1
40
1
40
2
40
2
40
2
40
3
40
3
40
3
40
4
40
4
40
4
40
4
10
5.1660898131169235
20
-3.7167427418201857
30
0
10
5.0970542193919242
20
-3.7167427418201857
30
0
10
5.0410898131169235
20
-3.6607783355451962
30
0
10
5.0410898131169235
20
-3.5917427418201862
30
0
10
5.0410898131169235
20
-3.5227071480951859
30
0
10
5.0970542193919242
20
-3.4667427418201853
30
0
10
5.1660898131169235
20
-3.4667427418201853
30
0
10
5.2351254068419246
20
-3.4667427418201853
30
0
10
5.2910898131169226
20
-3.5227071480951859
30
0
10
5.2910898131169226
20
-3.5917427418201862
30
0
10
5.2910898131169226
20
-3.6607783355451962
30
0
10
5.2351254068419246
20
-3.7167427418201857
30
0
10
5.1660898131169235
20
-3.7167427418201857
30
0
0
LINE
5
107
100
AcDbEntity
8
0
100
AcDbLine
10
8.7998749287337841
20
-3.5917427418201848
30
0
11
8.9338795006496881
21
-3.5917427418201848
31
0
0
LINE
5
108
100
AcDbEntity
8
0
100
AcDbLine
10
2.0164835139043356
20
-3.5247404558622413
30
0
11
2.0164835139043356
21
-3.658745027778131
31
0
0
LINE
5
109
100
AcDbEntity
8
0
100
AcDbLine
10
12.016483513904332
20
-3.5247404558622386
30
0
11
12.016483513904332
21
-3.6587450277781284
31
0
0
LINE
5
110
100
AcDbEntity
8
0
100
AcDbLine
10
1.9494812279463936
20
-3.5917427418201862
30
0
11
2.0834857998622831
21
-3.5917427418201862
31
0
0
SPLINE
5
111
100
AcDbEntity
8
0
100
AcDbSpline
70
0
71
3
72
17
73
13
74
0
42
0.000000001
43
0.0000000001
44
0.0000000001
40
0
40
0
40
0
40
0
40
1
40
1
40
1
40
2
40
2
40
2
40
3
40
3
40
3
40
4
40
4
40
4
40
4
10
12.016483513904332
20
-3.7167427418201844
30
0
10
11.947447920179334
20
-3.7167427418201844
30
0
10
11.891483513904333
20
-3.6607783355451948
30
0
10
11.891483513904333
20
-3.5917427418201835
30
0
10
11.891483513904333
20
-3.5227071480951846
30
0
10
11.947447920179334
20
-3.4667427418201839
30
0
10
12.016483513904332
20
-3.4667427418201839
30
0
10
12.085519107629331
20
-3.4667427418201839
30
0
10
12.141483513904332
20
-3.5227071480951846
30
0
10
12.141483513904332
20
-3.5917427418201835
30
0
10
12.141483513904332
20
-3.6607783355451948
30
0
10
12.085519107629331
20
-3.7167427418201844
30
0
10
12.016483513904332
20
-3.7167427418201844
30
0
0
LINE
5
112
100
AcDbEntity
8
0
100
AcDbLine
10
11.949481227946388
20
-3.5917427418201835
30
0
11
12.083485799862277
21
-3.5917427418201835
31
0
0
ENDSEC
0
SECTION
2
OBJECTS
0
DICTIONARY
5
C
100
AcDbDictionary
3
ACAD_GROUP
350
D
3
ACAD_MLINESTYLE
350
17
0
DICTIONARY
5
D
100
AcDbDictionary
0
DICTIONARY
5
1A
330
C
100
AcDbDictionary
0
DICTIONARY
5
17
100
AcDbDictionary
0
ENDSEC
0
EOF
